<svg width="200" height="57" viewBox="0 0 200 57" fill="none" xmlns="http://www.w3.org/2000/svg">
<rect x="0.7" y="0.7" width="198.6" height="55.3436" rx="27.6718" stroke="#458FF6" stroke-width="1.4"/>
<path d="M71.202 33.2125L65.864 21.2275H68.227L72.528 31.2915H71.814L76.115 21.2275H78.393L73.055 33.2125H71.202ZM79.408 33.2125V24.6275H81.533V33.2125H79.408ZM79.289 23.0125V20.9385H81.652V23.0125H79.289ZM87.9886 33.3825C86.5492 33.3825 85.4216 32.9858 84.6056 32.1925C83.7896 31.3991 83.3816 30.3111 83.3816 28.9285C83.3816 28.0331 83.5572 27.2511 83.9086 26.5825C84.2599 25.9138 84.7472 25.3925 85.3706 25.0185C86.0052 24.6445 86.7419 24.4575 87.5806 24.4575C88.4079 24.4575 89.0992 24.6331 89.6546 24.9845C90.2099 25.3358 90.6292 25.8288 90.9126 26.4635C91.2072 27.0981 91.3546 27.8405 91.3546 28.6905V29.2515H85.0986V28.1295H89.8416L89.5526 28.3675C89.5526 27.5741 89.3826 26.9678 89.0426 26.5485C88.7139 26.1291 88.2322 25.9195 87.5976 25.9195C86.8949 25.9195 86.3509 26.1688 85.9656 26.6675C85.5916 27.1661 85.4046 27.8631 85.4046 28.7585V28.9795C85.4046 29.9088 85.6312 30.6058 86.0846 31.0705C86.5492 31.5238 87.2009 31.7505 88.0396 31.7505C88.5269 31.7505 88.9802 31.6881 89.3996 31.5635C89.8302 31.4275 90.2382 31.2121 90.6236 30.9175L91.2526 32.3455C90.8446 32.6741 90.3572 32.9291 89.7906 33.1105C89.2239 33.2918 88.6232 33.3825 87.9886 33.3825ZM95.4012 33.2125L92.0522 24.6275H94.2452L96.6592 31.3085H96.2172L98.6652 24.6275H100.178L102.609 31.3085H102.218L104.615 24.6275H106.689L103.34 33.2125H101.47L98.9032 26.3785H99.8042L97.2882 33.2125H95.4012ZM116.009 33.3825C115.261 33.3825 114.604 33.2068 114.037 32.8555C113.47 32.4928 113.028 31.9771 112.711 31.3085C112.394 30.6398 112.235 29.8408 112.235 28.9115C112.235 27.9821 112.394 27.1888 112.711 26.5315C113.028 25.8628 113.47 25.3528 114.037 25.0015C114.604 24.6388 115.261 24.4575 116.009 24.4575C116.734 24.4575 117.369 24.6388 117.913 25.0015C118.468 25.3528 118.837 25.8288 119.018 26.4295H118.831L119.018 24.6275H121.058C121.024 24.9788 120.99 25.3358 120.956 25.6985C120.933 26.0611 120.922 26.4181 120.922 26.7695V33.2125H118.814L118.797 31.4445H119.001C118.82 32.0338 118.451 32.5041 117.896 32.8555C117.341 33.2068 116.712 33.3825 116.009 33.3825ZM116.604 31.7505C117.273 31.7505 117.811 31.5181 118.219 31.0535C118.627 30.5775 118.831 29.8635 118.831 28.9115C118.831 27.9595 118.627 27.2511 118.219 26.7865C117.811 26.3218 117.273 26.0895 116.604 26.0895C115.935 26.0895 115.397 26.3218 114.989 26.7865C114.581 27.2511 114.377 27.9595 114.377 28.9115C114.377 29.8635 114.575 30.5775 114.972 31.0535C115.38 31.5181 115.924 31.7505 116.604 31.7505ZM123.236 33.2125V20.7005H125.361V33.2125H123.236ZM127.669 33.2125V20.7005H129.794V33.2125H127.669Z" fill="#458FF6"/>
</svg>
