<svg width="200" height="57" viewBox="0 0 200 57" fill="none" xmlns="http://www.w3.org/2000/svg">
<rect x="0.7" y="0.7" width="198.6" height="55.3436" rx="27.6718" stroke="#458FF6" stroke-width="1.4"/>
<path d="M52.404 35.2257V22.5357H54.726V33.2637H60.702V35.2257H52.404ZM66.6004 35.4057C65.0764 35.4057 63.8824 34.9857 63.0184 34.1457C62.1544 33.3057 61.7224 32.1537 61.7224 30.6897C61.7224 29.7417 61.9084 28.9137 62.2804 28.2057C62.6524 27.4977 63.1684 26.9457 63.8284 26.5497C64.5004 26.1537 65.2804 25.9557 66.1684 25.9557C67.0444 25.9557 67.7764 26.1417 68.3644 26.5137C68.9524 26.8857 69.3964 27.4077 69.6964 28.0797C70.0084 28.7517 70.1644 29.5377 70.1644 30.4377V31.0317H63.5404V29.8437H68.5624L68.2564 30.0957C68.2564 29.2557 68.0764 28.6137 67.7164 28.1697C67.3684 27.7257 66.8584 27.5037 66.1864 27.5037C65.4424 27.5037 64.8664 27.7677 64.4584 28.2957C64.0624 28.8237 63.8644 29.5617 63.8644 30.5097V30.7437C63.8644 31.7277 64.1044 32.4657 64.5844 32.9577C65.0764 33.4377 65.7664 33.6777 66.6544 33.6777C67.1704 33.6777 67.6504 33.6117 68.0944 33.4797C68.5504 33.3357 68.9824 33.1077 69.3904 32.7957L70.0564 34.3077C69.6244 34.6557 69.1084 34.9257 68.5084 35.1177C67.9084 35.3097 67.2724 35.4057 66.6004 35.4057ZM75.5797 35.4057C74.7877 35.4057 74.0917 35.2197 73.4917 34.8477C72.8917 34.4637 72.4237 33.9177 72.0877 33.2097C71.7517 32.5017 71.5837 31.6557 71.5837 30.6717C71.5837 29.6877 71.7517 28.8477 72.0877 28.1517C72.4237 27.4437 72.8917 26.9037 73.4917 26.5317C74.0917 26.1477 74.7877 25.9557 75.5797 25.9557C76.3477 25.9557 77.0197 26.1477 77.5957 26.5317C78.1837 26.9037 78.5737 27.4077 78.7657 28.0437H78.5677L78.7657 26.1357H80.9257C80.8897 26.5077 80.8537 26.8857 80.8177 27.2697C80.7937 27.6537 80.7817 28.0317 80.7817 28.4037V35.2257H78.5497L78.5317 33.3537H78.7477C78.5557 33.9777 78.1657 34.4757 77.5777 34.8477C76.9897 35.2197 76.3237 35.4057 75.5797 35.4057ZM76.2097 33.6777C76.9177 33.6777 77.4877 33.4317 77.9197 32.9397C78.3517 32.4357 78.5677 31.6797 78.5677 30.6717C78.5677 29.6637 78.3517 28.9137 77.9197 28.4217C77.4877 27.9297 76.9177 27.6837 76.2097 27.6837C75.5017 27.6837 74.9317 27.9297 74.4997 28.4217C74.0677 28.9137 73.8517 29.6637 73.8517 30.6717C73.8517 31.6797 74.0617 32.4357 74.4817 32.9397C74.9137 33.4317 75.4897 33.6777 76.2097 33.6777ZM83.2138 35.2257V28.4577C83.2138 28.0737 83.2018 27.6837 83.1778 27.2877C83.1658 26.8917 83.1358 26.5077 83.0878 26.1357H85.2658L85.5178 28.6197H85.1578C85.2778 28.0197 85.4758 27.5217 85.7518 27.1257C86.0398 26.7297 86.3878 26.4357 86.7958 26.2437C87.2038 26.0517 87.6478 25.9557 88.1278 25.9557C88.3438 25.9557 88.5178 25.9677 88.6498 25.9917C88.7818 26.0037 88.9138 26.0337 89.0458 26.0817L89.0278 28.0617C88.7998 27.9657 88.6018 27.9057 88.4338 27.8817C88.2778 27.8577 88.0798 27.8457 87.8398 27.8457C87.3238 27.8457 86.8858 27.9537 86.5258 28.1697C86.1778 28.3857 85.9138 28.6857 85.7338 29.0697C85.5658 29.4537 85.4818 29.8917 85.4818 30.3837V35.2257H83.2138ZM90.2982 35.2257V28.4037C90.2982 28.0317 90.2862 27.6537 90.2622 27.2697C90.2382 26.8857 90.2022 26.5077 90.1542 26.1357H92.3322L92.5122 27.9357H92.2962C92.5842 27.2997 93.0102 26.8137 93.5742 26.4777C94.1382 26.1297 94.7922 25.9557 95.5362 25.9557C96.6042 25.9557 97.4082 26.2557 97.9482 26.8557C98.4882 27.4557 98.7582 28.3917 98.7582 29.6637V35.2257H96.5082V29.7717C96.5082 29.0397 96.3642 28.5177 96.0762 28.2057C95.8002 27.8817 95.3802 27.7197 94.8162 27.7197C94.1202 27.7197 93.5682 27.9357 93.1602 28.3677C92.7522 28.7997 92.5482 29.3757 92.5482 30.0957V35.2257H90.2982ZM106.083 35.2257V28.4037C106.083 28.0317 106.071 27.6537 106.047 27.2697C106.023 26.8857 105.987 26.5077 105.939 26.1357H108.117L108.297 27.9357H108.081C108.333 27.3117 108.717 26.8257 109.233 26.4777C109.761 26.1297 110.385 25.9557 111.105 25.9557C111.825 25.9557 112.419 26.1297 112.887 26.4777C113.367 26.8137 113.703 27.3417 113.895 28.0617H113.607C113.859 27.4137 114.273 26.9037 114.849 26.5317C115.425 26.1477 116.085 25.9557 116.829 25.9557C117.849 25.9557 118.611 26.2557 119.115 26.8557C119.619 27.4557 119.871 28.3917 119.871 29.6637V35.2257H117.621V29.7537C117.621 29.0337 117.501 28.5177 117.261 28.2057C117.021 27.8817 116.637 27.7197 116.109 27.7197C115.485 27.7197 114.993 27.9417 114.633 28.3857C114.273 28.8177 114.093 29.4057 114.093 30.1497V35.2257H111.843V29.7537C111.843 29.0337 111.723 28.5177 111.483 28.2057C111.243 27.8817 110.859 27.7197 110.331 27.7197C109.707 27.7197 109.215 27.9417 108.855 28.3857C108.507 28.8177 108.333 29.4057 108.333 30.1497V35.2257H106.083ZM126.377 35.4057C125.441 35.4057 124.631 35.2137 123.947 34.8297C123.263 34.4457 122.729 33.8997 122.345 33.1917C121.973 32.4837 121.787 31.6437 121.787 30.6717C121.787 29.6997 121.973 28.8657 122.345 28.1697C122.729 27.4617 123.263 26.9157 123.947 26.5317C124.631 26.1477 125.441 25.9557 126.377 25.9557C127.313 25.9557 128.123 26.1477 128.807 26.5317C129.503 26.9157 130.037 27.4617 130.409 28.1697C130.793 28.8657 130.985 29.6997 130.985 30.6717C130.985 31.6437 130.793 32.4837 130.409 33.1917C130.037 33.8997 129.503 34.4457 128.807 34.8297C128.123 35.2137 127.313 35.4057 126.377 35.4057ZM126.377 33.6777C127.085 33.6777 127.649 33.4317 128.069 32.9397C128.489 32.4357 128.699 31.6797 128.699 30.6717C128.699 29.6637 128.489 28.9137 128.069 28.4217C127.649 27.9297 127.085 27.6837 126.377 27.6837C125.669 27.6837 125.105 27.9297 124.685 28.4217C124.265 28.9137 124.055 29.6637 124.055 30.6717C124.055 31.6797 124.265 32.4357 124.685 32.9397C125.105 33.4317 125.669 33.6777 126.377 33.6777ZM132.907 35.2257V28.4577C132.907 28.0737 132.895 27.6837 132.871 27.2877C132.859 26.8917 132.829 26.5077 132.781 26.1357H134.959L135.211 28.6197H134.851C134.971 28.0197 135.169 27.5217 135.445 27.1257C135.733 26.7297 136.081 26.4357 136.489 26.2437C136.897 26.0517 137.341 25.9557 137.821 25.9557C138.037 25.9557 138.211 25.9677 138.343 25.9917C138.475 26.0037 138.607 26.0337 138.739 26.0817L138.721 28.0617C138.493 27.9657 138.295 27.9057 138.127 27.8817C137.971 27.8577 137.773 27.8457 137.533 27.8457C137.017 27.8457 136.579 27.9537 136.219 28.1697C135.871 28.3857 135.607 28.6857 135.427 29.0697C135.259 29.4537 135.175 29.8917 135.175 30.3837V35.2257H132.907ZM144.243 35.4057C142.719 35.4057 141.525 34.9857 140.661 34.1457C139.797 33.3057 139.365 32.1537 139.365 30.6897C139.365 29.7417 139.551 28.9137 139.923 28.2057C140.295 27.4977 140.811 26.9457 141.471 26.5497C142.143 26.1537 142.923 25.9557 143.811 25.9557C144.687 25.9557 145.419 26.1417 146.007 26.5137C146.595 26.8857 147.039 27.4077 147.339 28.0797C147.651 28.7517 147.807 29.5377 147.807 30.4377V31.0317H141.183V29.8437H146.205L145.899 30.0957C145.899 29.2557 145.719 28.6137 145.359 28.1697C145.011 27.7257 144.501 27.5037 143.829 27.5037C143.085 27.5037 142.509 27.7677 142.101 28.2957C141.705 28.8237 141.507 29.5617 141.507 30.5097V30.7437C141.507 31.7277 141.747 32.4657 142.227 32.9577C142.719 33.4377 143.409 33.6777 144.297 33.6777C144.813 33.6777 145.293 33.6117 145.737 33.4797C146.193 33.3357 146.625 33.1077 147.033 32.7957L147.699 34.3077C147.267 34.6557 146.751 34.9257 146.151 35.1177C145.551 35.3097 144.915 35.4057 144.243 35.4057Z" fill="#458FF6"/>
</svg>
